# xmcd
#
# Track frame offsets:
# 150
# 10334
# 17830
# 30316
# 40221
# 53275
# 63466
# 73353
# 80013
# 90118
# 101626
# 116959
# 128115
# 142101
# 153000
#
# Disc length: 2257 seconds
#
#
# Revision: 0
# Processed by: cddbd v1.5.1PL0 Copyright (c) Steve Scherf et al.
# Submitted via: FreeRIP 2.80 
#
DISCID=c008cf0f
DTITLE=Wir beaten mehr - Cool Jerks
DYEAR=1900
DGENRE=Rock and Roll
TTITLE0=Tower - Twist
TTITLE1=Vierrad Baby
TTITLE2=Ich bin da für Dich
TTITLE3=Launisches Mädchen
TTITLE4=Alles wird gut
TTITLE5=Die Szene
TTITLE6=Das ist mein Alltag
TTITLE7=Vorbye (und Schluß....)
TTITLE8=November Mädchen
TTITLE9=Wochenender
TTITLE10=Mädchen dieser Stadt
TTITLE11=Junge Junge
TTITLE12=Das Hakbbkut Apanatschi
TTITLE13=Osterdeich
TTITLE14=Blaues Lied
EXTD=
EXTT0=
EXTT1=
EXTT2=
EXTT3=
EXTT4=
EXTT5=
EXTT6=
EXTT7=
EXTT8=
EXTT9=
EXTT10=
EXTT11=
EXTT12=
EXTT13=
EXTT14=
PLAYORDER=
